<?xml version="1.0" encoding="UTF-8"?>
<!DOCTYPE svg PUBLIC "-//W3C//DTD SVG 1.1//EN" "http://www.w3.org/Graphics/SVG/1.1/DTD/svg11.dtd">
<!-- Creator: CorelDRAW X8 -->
<svg xmlns="http://www.w3.org/2000/svg" xml:space="preserve" width="2000px" height="2067px" version="1.1" style="shape-rendering:geometricPrecision; text-rendering:geometricPrecision; image-rendering:optimizeQuality; fill-rule:evenodd; clip-rule:evenodd"
viewBox="0 0 2000 2068"
 xmlns:xlink="http://www.w3.org/1999/xlink">
 <defs>
  <style type="text/css">
   <![CDATA[
    .fil0 {fill:#FEFEFE}
    .fil1 {fill:#E6E7E8}
    .fil3 {fill:#D2D3D5}
    .fil7 {fill:black}
    .fil8 {fill:#00A6F9}
    .fil6 {fill:#2E5F9E}
    .fil2 {fill:#546886}
    .fil17 {fill:#5B6A6A}
    .fil4 {fill:#78B9EB}
    .fil5 {fill:#FFD422}
    .fil9 {fill:white}
    .fil13 {fill:url(#id0)}
    .fil14 {fill:url(#id1)}
    .fil16 {fill:url(#id2)}
    .fil15 {fill:url(#id3)}
    .fil11 {fill:url(#id4)}
    .fil12 {fill:url(#id5)}
    .fil10 {fill:url(#id6)}
   ]]>
  </style>
  <linearGradient id="id0" gradientUnits="userSpaceOnUse" x1="1658.59" y1="1469.37" x2="1099.37" y2="1579.29">
   <stop offset="0" style="stop-opacity:0; stop-color:#C2CECE"/>
   <stop offset="0.180392" style="stop-opacity:0.180392; stop-color:#AFBCBC"/>
   <stop offset="1" style="stop-opacity:1; stop-color:#5B6A6A"/>
  </linearGradient>
  <linearGradient id="id1" gradientUnits="userSpaceOnUse" x1="1787.78" y1="1764.55" x2="999.091" y2="1431.87">
   <stop offset="0" style="stop-opacity:1; stop-color:#C2CECE"/>
   <stop offset="1" style="stop-opacity:1; stop-color:#97AAAA"/>
  </linearGradient>
  <linearGradient id="id2" gradientUnits="userSpaceOnUse" x1="1469.61" y1="1558.08" x2="1469.61" y2="1423.09">
   <stop offset="0" style="stop-opacity:1; stop-color:#5B6A6A"/>
   <stop offset="1" style="stop-opacity:1; stop-color:#303033"/>
  </linearGradient>
  <linearGradient id="id3" gradientUnits="userSpaceOnUse" xlink:href="#id1" x1="1600.73" y1="1802.98" x2="1548.67" y2="1727.77">
  </linearGradient>
  <linearGradient id="id4" gradientUnits="userSpaceOnUse" x1="1269.06" y1="1718.13" x2="1650.87" y2="1338.25">
   <stop offset="0" style="stop-opacity:1; stop-color:white"/>
   <stop offset="1" style="stop-opacity:1; stop-color:#E8EFEE"/>
  </linearGradient>
  <radialGradient id="id5" gradientUnits="userSpaceOnUse" gradientTransform="matrix(1.26108 -0 -0 -1.26108 -394 3569)" cx="1508.17" cy="1578.54" r="319.75" fx="1508.17" fy="1578.54">
   <stop offset="0" style="stop-opacity:0; stop-color:white"/>
   <stop offset="0.219608" style="stop-opacity:0.219608; stop-color:#FAFBFB"/>
   <stop offset="0.470588" style="stop-opacity:0.47451; stop-color:#ECEEEE"/>
   <stop offset="0.74902" style="stop-opacity:0.745098; stop-color:#D5D9D9"/>
   <stop offset="1" style="stop-opacity:1; stop-color:#B8BFBE"/>
  </radialGradient>
  <radialGradient id="id6" gradientUnits="userSpaceOnUse" gradientTransform="matrix(1.07625 -0 -0 -1.07626 -116 3296)" cx="1515.78" cy="1587.53" r="989.491" fx="1515.78" fy="1587.53">
   <stop offset="0" style="stop-opacity:0; stop-color:white"/>
   <stop offset="0.478431" style="stop-opacity:0.482353; stop-color:#FDFDFD"/>
   <stop offset="0.65098" style="stop-opacity:0.654902; stop-color:#F6F7F7"/>
   <stop offset="0.780392" style="stop-opacity:0.780392; stop-color:#EBEDEC"/>
   <stop offset="0.878431" style="stop-opacity:0.878431; stop-color:#DADDDD"/>
   <stop offset="0.960784" style="stop-opacity:0.964706; stop-color:#C4CAC9"/>
   <stop offset="1" style="stop-opacity:1; stop-color:#B8BFBE"/>
  </radialGradient>
 </defs>
 <g id="Layer_x0020_1">
  <metadata id="CorelCorpID_0Corel-Layer"/>
  <path class="fil0" d="M1767 454l0 1114 -1600 0c-74,0 -134,-60 -134,-134l0 -980 1734 0zm0 0z"/>
  <path class="fil1" d="M1767 461l0 1107 -1465 0c529,-197 989,-652 1323,-1107l142 0zm0 0z"/>
  <path class="fil2" d="M834 811c0,55 -45,100 -101,100 -55,0 -100,-45 -100,-100 0,-55 45,-100 100,-100 56,0 101,45 101,100zm0 0z"/>
  <path class="fil3" d="M1167 811c0,55 -45,100 -100,100 -55,0 -100,-45 -100,-100 0,-55 45,-100 100,-100 55,0 100,45 100,100zm0 0z"/>
  <g id="_1611619551344">
   <path class="fil0" d="M1167 1201c0,55 -45,100 -100,100 -55,0 -100,-45 -100,-100 0,-55 45,-100 100,-100 55,0 100,45 100,100zm0 0z"/>
   <path class="fil0" d="M1500 867c0,56 -44,100 -100,100 -55,0 -100,-44 -100,-100 0,-55 45,-100 100,-100 56,0 100,45 100,100zm0 0z"/>
   <path class="fil0" d="M500 867c0,56 -45,100 -100,100 -55,0 -100,-44 -100,-100 0,-55 45,-100 100,-100 55,0 100,45 100,100zm0 0z"/>
   <path class="fil0" d="M834 1201c0,55 -45,100 -101,100 -55,0 -100,-45 -100,-100 0,-55 45,-100 100,-100 56,0 101,45 101,100zm0 0z"/>
   <path class="fil0" d="M500 1201c0,55 -45,100 -100,100 -55,0 -100,-45 -100,-100 0,-55 45,-100 100,-100 55,0 100,45 100,100zm0 0z"/>
  </g>
  <path class="fil4" d="M1867 1568c0,202 -164,366 -367,366 -202,0 -366,-164 -366,-366 0,-203 164,-367 366,-367 203,0 367,164 367,367zm0 0z"/>
  <path class="fil5" d="M1567 1568c0,36 -30,66 -67,66 -37,0 -66,-30 -66,-66 0,-37 29,-67 66,-67 37,0 67,30 67,67zm0 0z"/>
  <path class="fil6" d="M1800 1168l0 -905c0,-92 -74,-166 -166,-166 -396,0 -842,0 -1467,0 -92,0 -167,74 -167,166l0 1171c0,92 75,167 167,167l835 0c15,230 186,421 414,460 227,39 452,-83 544,-295 91,-212 25,-459 -160,-598l0 0zm-1733 266l0 -970 1667 0 0 662c-150,-80 -330,-78 -477,5 -148,82 -244,234 -255,403l-835 0c-56,0 -100,-45 -100,-100zm1433 567c-239,0 -433,-194 -433,-433 0,-240 194,-434 433,-434 240,0 434,194 434,434 -1,239 -194,433 -434,433z"/>
  <path class="fil7" d="M1534 1474l0 -173 -67 0 0 173c-28,10 -50,32 -61,60l-106 0 0 67 106 0c16,44 60,71 106,66 46,-5 82,-42 88,-88 5,-46 -22,-90 -66,-105zm-34 127c-18,0 -33,-15 -33,-33 0,-19 15,-34 33,-34 19,0 34,15 34,34 0,18 -15,33 -34,33zm0 0z"/>
  <path class="fil8" d="M733 677c-73,0 -133,60 -133,134 0,73 60,133 133,133 74,0 134,-60 134,-133 0,-74 -60,-134 -134,-134zm0 200c-36,0 -66,-29 -66,-66 0,-37 30,-67 66,-67 37,0 67,30 67,67 0,37 -30,66 -67,66zm0 0z"/>
  <path class="fil8" d="M1067 944c74,0 133,-60 133,-133 0,-74 -59,-134 -133,-134 -74,0 -133,60 -133,134 0,73 59,133 133,133zm0 -200c37,0 67,30 67,67 0,37 -30,66 -67,66 -37,0 -67,-29 -67,-66 0,-37 30,-67 67,-67zm0 0z"/>
  <path class="fil8" d="M1400 944c74,0 134,-60 134,-133 0,-74 -60,-134 -134,-134 -73,0 -133,60 -133,134 0,73 60,133 133,133zm0 -200c37,0 67,30 67,67 0,37 -30,66 -67,66 -37,0 -66,-29 -66,-66 0,-37 29,-67 66,-67zm0 0z"/>
  <path class="fil8" d="M400 677c-74,0 -133,60 -133,134 0,73 59,133 133,133 74,0 133,-60 133,-133 0,-74 -59,-134 -133,-134zm0 200c-37,0 -67,-29 -67,-66 0,-37 30,-67 67,-67 37,0 67,30 67,67 0,37 -30,66 -67,66zm0 0z"/>
  <path class="fil8" d="M733 1067c-73,0 -133,60 -133,134 0,74 60,133 133,133 74,0 134,-59 134,-133 0,-74 -60,-134 -134,-134zm0 201c-36,0 -66,-30 -66,-67 0,-37 30,-67 66,-67 37,0 67,30 67,67 0,37 -30,67 -67,67zm0 0z"/>
  <path class="fil8" d="M1022 1327l23 -63c-27,-10 -44,-34 -45,-62 0,-28 17,-54 44,-63 26,-10 55,-3 74,19l50 -44c-36,-42 -96,-58 -148,-38 -52,20 -87,70 -86,126 0,56 36,106 88,125l0 0zm0 0z"/>
  <path class="fil8" d="M400 1067c-74,0 -133,60 -133,134 0,74 59,133 133,133 74,0 133,-59 133,-133 0,-74 -59,-134 -133,-134zm0 201c-37,0 -67,-30 -67,-67 0,-37 30,-67 67,-67 37,0 67,30 67,67 0,37 -30,67 -67,67zm0 0z"/>
  <g id="_1611619492720">
  </g>
  <g id="_1611619491888">
  </g>
  <g id="_1611619493008">
  </g>
  <g id="_1611619492688">
  </g>
  <g id="_1611619492848">
  </g>
  <g id="_1611619492112">
  </g>
  <g id="_1611619495696">
  </g>
  <g id="_1611619494320">
  </g>
  <g id="_1611619495632">
  </g>
  <g id="_1611619495664">
  </g>
  <g id="_1611619494768">
  </g>
  <g id="_1611619494160">
  </g>
  <g id="_1611619495408">
  </g>
  <g id="_1611619497040">
  </g>
  <g id="_1611619496912">
  </g>
  <path class="fil9" d="M1372 317c43,0 79,-36 79,-79l0 -159c0,-44 -36,-79 -79,-79 -44,0 -79,35 -79,79l0 159c0,43 35,79 79,79zm0 0z"/>
  <path class="fil9" d="M438 317c44,0 79,-36 79,-79l0 -159c0,-44 -35,-79 -79,-79 -44,0 -79,35 -79,79l0 159c0,43 35,79 79,79zm0 0z"/>
  <ellipse class="fil10" cx="1507" cy="1579" rx="439" ry="450"/>
  <circle class="fil11" cx="1508" cy="1579" r="394"/>
  <circle class="fil12" cx="1508" cy="1579" r="127"/>
  <path class="fil13" d="M1510 1346c0,0 -1,0 -2,0 -3,0 -6,1 -6,5l-29 203c-5,7 -7,15 -7,25 0,13 6,26 17,34 2,3 5,6 8,8l264 264c55,-44 98,-103 123,-171l-368 -368z"/>
  <path class="fil14" d="M1502 1351l-29 205 35 0 35 0 -28 -205c-2,-7 -12,-7 -13,0z"/>
  <path class="fil15" d="M1543 1556l-28 -205c-1,-4 -4,-5 -7,-5l0 210 35 0z"/>
  <circle class="fil16" cx="1508" cy="1579" r="43"/>
  <g id="_1611619498160">
   <path class="fil17" d="M1510 1217l-3 0c-12,0 -21,9 -21,21l0 25c0,12 9,21 21,21l3 0c11,0 20,-9 20,-21l0 -25c0,-12 -9,-21 -20,-21z"/>
   <path class="fil17" d="M1510 1873l-3 0c-12,0 -21,9 -21,21l0 25c0,12 9,21 21,21l3 0c11,0 20,-9 20,-21l0 -25c0,-12 -9,-21 -20,-21z"/>
   <path class="fil17" d="M1849 1557l-26 0c-11,0 -20,9 -20,20l0 3c0,11 9,21 20,21l26 0c11,0 21,-10 21,-21l0 -3c0,-11 -10,-20 -21,-20z"/>
   <path class="fil17" d="M1213 1580l0 -3c0,-11 -9,-20 -20,-20l-26 0c-11,0 -20,9 -20,20l0 3c0,11 9,21 20,21l26 0c11,0 20,-10 20,-21z"/>
   <path class="fil17" d="M1222 1451l-41 -16c-4,-1 -7,1 -9,4 -1,3 1,7 4,9l41 15c3,1 7,0 8,-4 0,0 0,0 0,0 2,-3 0,-7 -3,-8z"/>
   <path class="fil17" d="M1840 1709l-40 -15c-4,-1 -8,0 -9,4 -1,3 0,7 4,9l40 15c4,1 8,0 9,-4 0,0 0,0 0,0 1,-3 0,-7 -4,-9z"/>
   <path class="fil17" d="M1648 1243c-4,-2 -8,0 -9,3l-15 41c-2,4 0,7 3,9 0,0 0,0 0,0 4,1 8,-1 9,-4l16 -41c1,-3 -1,-7 -4,-8z"/>
   <path class="fil17" d="M1389 1861c-4,-1 -7,1 -9,4l-15 41c-2,3 0,7 3,8 0,0 1,0 1,0 3,2 7,0 8,-3l16 -41c1,-4 -1,-7 -4,-9z"/>
   <path class="fil17" d="M1290 1794c-3,-2 -7,-2 -10,1l-29 31c-3,3 -3,7 0,10 3,2 7,2 10,-1l29 -31c3,-3 3,-7 0,-10 0,0 0,0 0,0z"/>
   <path class="fil17" d="M1765 1321c-2,-2 -7,-2 -9,1l-30 31c-3,3 -2,7 0,10 3,2 7,2 10,-1l30 -31c2,-3 2,-7 0,-10 0,0 -1,0 -1,0z"/>
   <path class="fil17" d="M1261 1321c-3,-3 -7,-2 -10,0 -3,3 -2,7 0,10l32 30c3,2 7,2 9,0 0,-1 0,-1 0,-1 3,-2 3,-7 0,-9l-31 -30z"/>
   <path class="fil17" d="M1733 1796c-2,-2 -6,-2 -9,1 -3,2 -3,7 0,9l32 30c3,3 7,2 9,0 0,0 0,0 0,0 3,-3 3,-7 0,-10l-32 -30z"/>
   <path class="fil17" d="M1224 1694c-2,-3 -6,-5 -9,-3l-40 17c-3,2 -5,6 -3,9 1,4 5,5 9,4l40 -18c3,-1 4,-5 3,-9 0,0 0,0 0,0z"/>
   <path class="fil17" d="M1801 1466l40 -17c3,-2 5,-6 3,-9 0,0 0,0 0,0 -1,-4 -5,-5 -9,-4l-39 18c-4,2 -5,6 -4,9 2,3 6,5 9,3z"/>
   <path class="fil17" d="M1378 1246c-1,-4 -5,-5 -9,-4 -3,2 -5,6 -3,9l18 40c1,3 5,5 8,3 0,0 1,0 1,0 3,-1 5,-5 3,-9l-18 -39z"/>
   <path class="fil17" d="M1633 1866c-2,-3 -6,-5 -9,-3 -4,1 -5,5 -4,9l18 39c2,4 5,5 9,4 0,0 0,0 0,0 3,-2 5,-6 3,-9l-17 -40z"/>
  </g>
  <g id="_1611619505808">
  </g>
  <g id="_1611619505104">
  </g>
  <g id="_1611619505584">
  </g>
  <g id="_1611619504656">
  </g>
  <g id="_1611619505744">
  </g>
  <g id="_1611619504272">
  </g>
  <g id="_1611619507088">
  </g>
  <g id="_1611619506544">
  </g>
  <g id="_1611619506736">
  </g>
  <g id="_1611619507152">
  </g>
  <g id="_1611619507920">
  </g>
  <g id="_1611619506320">
  </g>
  <g id="_1611619508560">
  </g>
  <g id="_1611619509648">
  </g>
  <g id="_1611619508016">
  </g>
  <g id="_1611619509776">
  </g>
  <g id="_1611619509936">
  </g>
  <g id="_1611619508336">
  </g>
  <g id="_1611619508880">
  </g>
  <g id="_1611619511536">
  </g>
  <g id="_1611619510672">
  </g>
  <g id="_1611619511472">
  </g>
  <g id="_1611619510960">
  </g>
  <g id="_1611619511376">
  </g>
  <g id="_1611619510384">
  </g>
  <g id="_1611619512656">
  </g>
  <g id="_1611619513584">
  </g>
  <g id="_1611619513552">
  </g>
  <g id="_1611619513616">
  </g>
  <g id="_1611619512368">
  </g>
 </g>
</svg>
