<?xml version="1.0" encoding="UTF-8"?>
<!DOCTYPE svg PUBLIC "-//W3C//DTD SVG 1.1//EN" "http://www.w3.org/Graphics/SVG/1.1/DTD/svg11.dtd">
<!-- Creator: CorelDRAW X8 -->
<svg xmlns="http://www.w3.org/2000/svg" xml:space="preserve" width="3371px" height="847px" version="1.1" style="shape-rendering:geometricPrecision; text-rendering:geometricPrecision; image-rendering:optimizeQuality; fill-rule:evenodd; clip-rule:evenodd"
viewBox="0 0 3255 818"
 xmlns:xlink="http://www.w3.org/1999/xlink">
 <defs>
  <style type="text/css">
   <![CDATA[
    .fil0 {fill:none}
    .fil1 {fill:#FEFEFE;fill-rule:nonzero}
   ]]>
  </style>
 </defs>
 <g id="Layer_x0020_1">
  <metadata id="CorelCorpID_0Corel-Layer"/>
  <rect class="fil0" width="3255" height="818"/>
  <g id="_2823952312800">
   <path class="fil1" d="M286 47c25,0 47,4 66,13 19,8 35,19 47,32 13,14 22,30 29,47 6,18 9,37 9,56 0,17 -3,35 -8,53 -6,17 -15,33 -26,48 -12,15 -26,27 -43,38 -18,11 -38,19 -62,23 0,13 -1,25 -1,36 0,5 0,10 0,15 -1,4 -1,9 -1,13 0,3 0,7 0,10 0,3 0,5 0,6 0,13 -2,26 -4,39 -2,14 -5,27 -9,40 -4,13 -10,26 -15,37 -6,12 -13,22 -21,31 -8,9 -17,16 -27,21 -9,5 -20,8 -32,8 -12,0 -23,-4 -32,-12 -10,-7 -18,-18 -26,-31 -7,-13 -13,-28 -18,-45 -5,-17 -9,-35 -12,-54 -4,-18 -6,-37 -7,-56 -2,-19 -2,-36 -2,-53 0,-29 2,-56 6,-83 4,-27 11,-52 19,-75 8,-23 18,-45 29,-64 12,-19 25,-36 39,-49 15,-14 30,-25 47,-32 17,-8 36,-12 55,-12zm-135 308c0,8 0,18 0,30 0,13 0,26 1,41 1,14 2,29 4,43 1,15 4,28 7,40 3,12 7,22 12,29 5,8 11,12 18,12 8,0 15,-4 20,-10 5,-6 10,-15 13,-25 4,-10 7,-22 9,-35 2,-13 4,-26 5,-39 1,-13 1,-26 2,-38 0,-12 0,-22 0,-30l0 -13c-12,-6 -22,-11 -29,-15 -7,-5 -12,-9 -16,-13 -3,-4 -5,-9 -6,-13 -1,-5 -2,-10 -2,-16 0,-3 0,-7 1,-10 0,-3 0,-6 1,-9 0,-2 1,-5 3,-6 1,-2 3,-3 5,-3 1,0 3,1 4,1 1,1 3,2 5,4 4,3 9,6 13,8 4,3 7,4 10,6 3,1 6,2 9,3 0,-2 0,-7 0,-14 0,-7 0,-15 1,-24 1,-10 3,-19 4,-29 2,-10 5,-19 9,-27 4,-9 9,-16 15,-21 6,-5 13,-8 22,-8 3,0 6,0 8,1 3,0 6,2 8,3 2,2 4,4 6,7 1,3 2,7 2,12 0,1 0,2 0,2 0,1 0,1 0,2l-14 71 -2 22c15,-3 27,-7 38,-13 11,-6 19,-14 26,-22 7,-8 12,-17 16,-27 3,-10 5,-21 5,-31 0,-10 -2,-21 -5,-31 -3,-11 -9,-21 -17,-30 -8,-8 -18,-16 -32,-21 -13,-6 -29,-9 -50,-9 -15,0 -28,4 -41,11 -12,7 -23,16 -32,28 -10,12 -18,26 -25,43 -7,16 -13,33 -18,51 -4,18 -8,37 -10,56 -2,19 -3,38 -3,56zm497 122c-3,5 -8,12 -13,20 -6,8 -13,16 -20,23 -7,7 -15,13 -23,18 -8,5 -16,7 -24,7 -10,0 -19,-4 -25,-11 -7,-8 -13,-19 -17,-34 -4,5 -9,10 -14,16 -5,5 -11,9 -17,14 -6,4 -13,7 -20,10 -6,3 -13,4 -20,4 -7,0 -14,-2 -21,-5 -7,-4 -13,-9 -18,-15 -5,-7 -9,-15 -13,-25 -3,-9 -4,-20 -4,-32 0,-14 1,-28 4,-42 4,-14 8,-30 15,-47 7,-16 14,-31 21,-43 8,-12 16,-23 25,-32 9,-9 19,-16 29,-21 10,-6 20,-8 30,-8 4,0 7,1 9,2 2,2 3,4 4,6 2,2 3,4 4,6 1,2 3,4 5,4 1,1 3,2 5,2 2,1 4,1 6,1 2,0 3,0 5,0 2,-1 3,-1 5,-1 2,0 4,1 6,1 2,1 4,2 6,4 1,2 2,4 3,8 1,3 1,7 1,13 0,9 0,18 -2,29 -1,10 -3,21 -5,32 -2,11 -4,24 -7,38 -2,15 -3,27 -3,36 0,9 0,15 2,20 1,5 4,7 8,7 3,0 6,-1 10,-3 3,-1 6,-4 10,-7 4,-3 7,-7 11,-10 3,-4 6,-8 9,-12 8,-10 15,-21 23,-34l10 61zm-192 -22c0,5 0,9 1,14 0,4 1,8 3,11 1,4 3,6 5,9 2,2 5,3 9,3 5,0 10,-3 15,-9 4,-6 8,-13 11,-21 4,-8 6,-17 8,-26 2,-8 4,-16 4,-21l17 -89c-6,0 -12,2 -18,6 -6,3 -11,8 -16,15 -6,6 -10,13 -15,21 -4,8 -8,18 -12,30 -5,12 -8,23 -9,32 -2,9 -3,17 -3,25zm244 89c-14,0 -26,-3 -36,-10 -11,-6 -19,-14 -27,-25 -7,-10 -12,-22 -15,-35 -4,-14 -6,-28 -6,-43 0,-11 2,-23 5,-38 3,-15 6,-27 9,-39 4,-11 8,-21 13,-31 6,-10 12,-19 18,-26 7,-8 15,-14 23,-18 9,-5 18,-7 28,-7 9,0 17,2 25,5 8,3 14,7 20,13 5,6 9,12 12,20 4,8 5,16 5,25 0,6 -1,12 -2,18 -2,6 -4,13 -9,21 -4,9 -8,14 -12,17 -4,3 -8,4 -13,4 -8,0 -13,-2 -15,-7 -3,-7 -5,-13 -3,-18 0,-3 2,-10 4,-20 0,-2 0,-5 0,-10 0,-5 0,-8 -1,-11 -1,-3 -2,-5 -5,-5 -6,0 -11,2 -16,6 -4,3 -7,8 -10,14 -4,5 -6,13 -9,24 -3,10 -5,19 -7,26 -1,7 -2,14 -2,21 0,6 -1,11 -1,16 0,6 1,13 2,20 1,7 3,14 6,20 3,5 6,10 11,14 4,4 10,6 18,6 7,0 15,-3 23,-8 9,-5 18,-12 26,-20 9,-8 18,-17 25,-27 8,-10 15,-19 21,-28l15 32c-11,19 -23,36 -36,52 -6,6 -11,13 -18,19 -7,6 -13,12 -20,16 -8,5 -15,9 -23,12 -7,3 -15,5 -23,5zm171 -151c6,-8 12,-18 18,-28 7,-10 13,-20 19,-29 6,-9 13,-19 19,-29 6,-10 11,-16 14,-19 4,-4 10,-7 17,-10 6,-3 14,-4 22,-4 4,0 8,1 12,3 4,3 7,6 10,11 3,4 5,9 7,16 1,6 2,13 2,21 0,7 -2,16 -6,27 -4,10 -8,19 -13,27 -4,8 -9,16 -14,23 -6,8 -10,16 -15,24 -4,8 -8,16 -11,23 -3,8 -5,16 -5,24 0,6 2,11 4,14 3,3 7,4 13,4 3,0 6,-1 9,-4 4,-2 7,-5 11,-9 4,-4 8,-9 11,-14 4,-5 8,-10 11,-15 4,-5 7,-10 10,-15 4,-5 6,-9 9,-12l13 68c-4,7 -10,15 -17,21 -7,7 -15,12 -23,17 -9,5 -17,9 -26,12 -9,2 -17,4 -26,4 -10,0 -19,-2 -26,-5 -7,-3 -12,-7 -16,-12 -4,-5 -7,-10 -8,-16 -1,-7 -2,-13 -2,-20 0,-4 0,-9 1,-15 1,-6 2,-13 5,-21 2,-8 5,-17 10,-26 4,-9 9,-19 16,-30 3,-3 5,-6 7,-9 3,-3 4,-5 6,-7 2,-2 3,-4 4,-6 1,-2 1,-4 1,-6 0,-4 0,-7 -1,-9 -2,-3 -3,-4 -5,-4 -3,0 -6,2 -10,6 -4,4 -9,11 -13,22l-66 140c-4,6 -7,11 -11,14 -3,2 -8,4 -12,4 -7,0 -12,-2 -16,-5 -3,-3 -6,-8 -8,-13 -2,-5 -3,-12 -4,-19 0,-7 -1,-14 -1,-23 0,-10 1,-24 1,-41 1,-18 2,-37 3,-57 1,-21 3,-43 5,-65 2,-23 4,-45 7,-67 1,-7 3,-16 4,-27 2,-10 4,-22 7,-34 2,-12 5,-24 8,-38 3,-13 7,-26 12,-38 4,-12 9,-24 14,-35 6,-12 12,-21 19,-30 7,-8 14,-15 23,-20 8,-5 17,-7 27,-7 7,0 13,1 18,4 5,3 9,8 12,13 3,5 5,12 6,19 1,7 2,15 2,24 0,15 -2,32 -5,50 -3,18 -7,36 -12,54 -5,18 -10,35 -16,52 -6,17 -11,33 -17,46 -5,14 -10,25 -14,35 -4,9 -7,15 -8,18l-27 49 5 4zm44 -307c-5,0 -9,2 -12,5 -4,4 -7,9 -10,16 -3,6 -6,14 -9,24 -3,10 -7,20 -11,32 -2,10 -4,21 -6,33 -3,11 -5,22 -6,33 -1,11 -3,22 -4,32 -1,11 -2,21 -4,30 -2,23 -4,45 -5,67 3,-12 7,-25 11,-39 4,-15 8,-29 11,-43 4,-14 8,-27 11,-39 4,-12 7,-22 9,-31 1,-4 2,-9 4,-15 2,-6 4,-12 7,-19 2,-7 4,-14 6,-22 3,-7 5,-14 7,-21 2,-7 3,-13 4,-19 1,-6 2,-11 2,-16 0,-5 -2,-8 -5,-8zm195 408c0,-2 0,-5 1,-10 0,-4 0,-9 1,-15 1,-6 1,-12 2,-18 1,-6 2,-12 2,-19 2,-14 4,-30 6,-47l-3 0c-2,3 -4,7 -6,13 -2,5 -6,13 -10,24 -4,10 -9,24 -16,41 -6,17 -15,38 -25,62 -3,7 -7,12 -11,15 -3,2 -8,4 -13,4 -6,0 -11,-2 -14,-5 -4,-3 -7,-7 -9,-12 -2,-6 -3,-11 -4,-18 -1,-7 -1,-13 -1,-21 0,-7 0,-16 1,-26 1,-10 2,-21 3,-33 1,-11 3,-24 5,-38 2,-15 4,-28 6,-38 2,-11 4,-21 5,-30 2,-9 4,-17 5,-22 2,-6 3,-11 5,-14 1,-4 3,-7 4,-8 2,-2 4,-4 6,-4 3,-1 6,-1 10,-1 5,0 10,0 13,0 3,1 6,2 7,4 2,1 3,4 3,7 0,4 0,8 0,14 0,3 0,6 0,10 0,5 -1,9 -1,13 0,5 -1,10 -1,15 -1,9 -2,13 -2,14 -2,12 -4,26 -7,42l3 3c0,-1 2,-5 6,-15 3,-9 7,-18 12,-27 4,-9 9,-18 13,-28 5,-10 10,-19 15,-26 4,-8 9,-14 13,-19 5,-5 11,-7 18,-7 6,0 11,2 16,6 4,5 7,11 7,20 0,7 -1,14 -1,20 -1,8 -2,14 -3,19 -1,4 -2,10 -4,17 -1,6 -3,15 -5,27 -1,1 -1,4 -2,8 0,1 0,1 0,2l3 3c0,-1 2,-5 6,-14 4,-10 8,-19 12,-28 5,-9 10,-18 15,-28 5,-10 10,-19 14,-26 5,-7 9,-14 13,-19 5,-5 10,-7 16,-7 7,0 13,2 18,6 5,5 7,11 7,20 0,12 0,24 -1,36 -1,11 -3,24 -5,37 -2,14 -4,27 -5,38 -1,11 -1,23 -1,36 0,10 1,18 3,24 2,6 5,10 8,10 3,0 6,-1 10,-3 3,-2 6,-4 10,-6 4,-3 7,-6 11,-9 3,-4 6,-7 9,-11 8,-8 15,-18 22,-28l4 64c-7,6 -13,13 -20,19 -6,7 -13,13 -20,18 -8,6 -15,10 -24,13 -9,4 -19,6 -29,6 -6,0 -10,-2 -14,-7 -4,-4 -7,-10 -9,-17 -2,-8 -4,-16 -5,-26 -1,-11 -1,-22 -1,-33 0,-12 0,-24 1,-37 1,-13 1,-26 3,-40l-4 0 -45 140c-4,8 -8,13 -13,16 -5,2 -11,4 -17,4 -5,0 -8,-2 -11,-5 -3,-3 -5,-7 -7,-12 -1,-5 -2,-10 -3,-16 0,-6 -1,-11 -1,-17zm284 54l5 -33c-8,9 -16,16 -25,21 -9,5 -17,8 -25,8 -7,0 -14,-2 -21,-5 -7,-4 -13,-9 -18,-15 -6,-7 -10,-15 -13,-25 -3,-9 -5,-20 -5,-32 0,-16 1,-30 3,-43 2,-13 4,-30 7,-49 2,-19 6,-35 9,-46 4,-11 8,-22 12,-34 4,-8 9,-14 15,-18 7,-5 13,-7 19,-7 5,0 10,2 13,5 4,3 6,8 6,15 0,2 0,4 -1,6 0,3 -1,5 -1,8 -3,8 -5,18 -7,30 -2,11 -4,27 -7,46 -3,19 -6,34 -8,45 -1,12 -2,22 -2,30 0,5 0,10 1,14 0,4 1,8 2,11 2,4 4,6 6,9 2,2 5,3 8,3 6,0 11,-3 15,-9 5,-6 9,-13 12,-21 3,-8 6,-17 8,-26 2,-8 3,-16 4,-21l18 -102c1,-6 3,-12 6,-17 3,-4 7,-8 11,-12 4,-3 8,-6 12,-7 5,-2 9,-3 13,-3 4,0 8,1 11,4 4,2 5,6 5,12 0,1 0,3 -1,5 0,5 -1,12 -2,20 -2,8 -3,17 -4,28 -2,10 -4,24 -7,43 -2,19 -4,34 -6,45 -4,27 -8,56 -12,87 5,-3 10,-7 15,-11 5,-5 11,-11 17,-18 7,-8 14,-18 22,-29 8,-12 17,-26 27,-43l10 60c-2,6 -6,12 -10,17 -4,6 -9,12 -14,18 -8,9 -13,14 -16,17 -1,1 -7,6 -17,16 -3,3 -13,11 -29,25 -4,3 -7,9 -9,18 -1,8 -3,24 -5,48 -1,6 -1,11 -2,15 -1,9 -1,17 -2,25 -1,8 -3,17 -5,27 -2,10 -4,19 -7,28 -3,8 -7,16 -11,25 -5,8 -10,15 -16,21 -5,6 -12,11 -20,14 -8,4 -16,6 -26,6 -7,0 -14,-1 -21,-3 -6,-2 -12,-6 -18,-10 -5,-4 -10,-10 -13,-18 -3,-7 -5,-16 -6,-26 -1,-20 3,-40 13,-61 6,-12 9,-21 12,-25 2,-5 5,-11 10,-20 5,-9 10,-16 15,-23 11,-15 19,-26 26,-35 7,-9 15,-18 24,-28zm1 66c-10,9 -21,23 -31,43 -10,20 -18,41 -24,61 -5,18 -3,26 7,26 4,0 7,0 10,-1 3,-1 6,-3 8,-6 2,-3 4,-6 6,-9 2,-4 4,-8 6,-14 2,-7 4,-12 5,-18 2,-6 4,-14 6,-24 2,-5 3,-11 3,-17 1,-7 2,-15 3,-24 1,-9 1,-15 1,-17zm179 -70c-8,0 -15,-5 -22,-13 -7,-9 -13,-20 -18,-34 -5,-15 -9,-31 -12,-50 -3,-19 -5,-39 -5,-59 0,-18 2,-42 7,-72 4,-30 6,-45 6,-45 0,0 4,-15 10,-44 6,-30 13,-53 20,-71 6,-18 13,-35 21,-51 8,-15 16,-29 24,-41 9,-11 18,-20 27,-27 9,-6 18,-10 28,-10 7,0 12,2 17,5 4,3 8,7 10,13 3,5 5,11 6,18 1,6 1,13 1,20 0,17 -1,35 -5,52 -3,18 -7,36 -13,54 -6,18 -12,36 -20,54 -7,18 -15,36 -23,54 -8,18 -16,35 -24,53 -8,17 -16,34 -23,50 -1,2 -1,5 -2,7 -1,3 -2,7 -3,10 0,3 -1,7 -2,11 -1,4 -1,7 -2,11l0 4c0,5 1,9 2,14 0,4 1,8 3,12 1,3 2,6 3,8 2,3 3,4 4,4 3,0 7,-1 10,-3 4,-1 8,-3 12,-6 4,-2 9,-5 13,-8 5,-3 9,-6 13,-10 10,-8 20,-16 30,-26l20 57c-14,11 -27,21 -41,29 -5,4 -11,8 -18,11 -6,4 -12,7 -18,10 -7,2 -13,5 -19,6 -6,2 -12,3 -17,3zm0 -216c7,-15 14,-31 22,-50 8,-18 15,-37 21,-56 7,-20 13,-39 18,-59 5,-19 8,-37 9,-54 0,-5 0,-9 0,-13 0,-4 -1,-6 -2,-6 -4,0 -8,4 -13,11 -5,7 -10,16 -15,28 -4,12 -10,31 -17,57 -6,26 -9,40 -9,40 0,0 -2,12 -6,37 -4,24 -7,46 -8,65z"/>
   <path class="fil1" d="M1783 334c4,10 7,21 9,33 3,12 4,25 4,40 0,10 -1,21 -3,32 -2,11 -5,21 -9,32 -3,10 -8,19 -13,28 -5,9 -12,17 -18,23 -7,7 -15,12 -23,16 -8,4 -16,6 -26,6 -13,0 -24,-4 -33,-11 -10,-7 -17,-16 -23,-27 -6,-12 -11,-24 -13,-38 -3,-15 -5,-29 -5,-44 0,-24 3,-44 8,-62 5,-17 12,-32 21,-45 9,-13 21,-23 34,-30 13,-7 28,-11 45,-11 14,0 27,3 40,8 12,5 24,12 35,21 10,9 21,21 30,34 9,14 18,27 26,39l-4 39c-4,-7 -10,-14 -17,-21 -6,-8 -14,-16 -21,-26 -8,-9 -16,-17 -23,-23 -8,-7 -14,-12 -19,-17l-2 4zm-70 157c5,0 10,-3 15,-9 5,-6 9,-14 13,-24 3,-9 6,-21 8,-34 3,-14 4,-26 4,-37 0,-8 -1,-16 -2,-23 -1,-7 -3,-13 -5,-18 -2,-6 -5,-10 -8,-13 -3,-3 -7,-5 -12,-5 -6,0 -12,4 -17,10 -6,6 -11,14 -15,24 -4,10 -7,21 -10,33 -2,12 -3,26 -3,41 0,7 0,14 1,21 1,7 3,13 6,18 3,5 6,9 10,12 4,3 9,4 15,4zm360 -14c-3,5 -8,12 -13,20 -6,8 -13,16 -20,23 -7,7 -15,13 -23,18 -8,5 -16,7 -24,7 -10,0 -19,-4 -25,-11 -7,-8 -13,-19 -17,-34 -4,5 -9,10 -14,16 -5,5 -11,9 -17,14 -6,4 -13,7 -20,10 -6,3 -13,4 -20,4 -7,0 -14,-2 -21,-5 -7,-4 -13,-9 -18,-15 -5,-7 -9,-15 -13,-25 -3,-9 -4,-20 -4,-32 0,-14 1,-28 4,-42 4,-14 8,-30 15,-47 7,-16 14,-31 21,-43 8,-12 16,-23 25,-32 9,-9 19,-16 29,-21 10,-6 20,-8 30,-8 4,0 7,1 9,2 2,2 3,4 4,6 2,2 3,4 4,6 1,2 3,4 5,4 2,1 3,2 5,2 2,1 4,1 6,1 2,0 3,0 5,0 2,-1 3,-1 5,-1 2,0 4,1 6,1 2,1 4,2 6,4 1,2 2,4 3,8 1,3 1,7 1,13 0,9 0,18 -2,29 -1,10 -3,21 -5,32 -2,11 -4,24 -7,38 -2,15 -3,27 -3,36 0,9 0,15 2,20 1,5 4,7 8,7 3,0 6,-1 10,-3 3,-1 6,-4 10,-7 4,-3 7,-7 11,-10 3,-4 6,-8 10,-12 7,-10 14,-21 22,-34l10 61zm-192 -22c0,5 0,9 1,14 0,4 1,8 3,11 1,4 3,6 5,9 2,2 5,3 9,3 5,0 10,-3 15,-9 4,-6 8,-13 11,-21 4,-8 6,-17 8,-26 2,-8 4,-16 4,-21l17 -89c-6,0 -12,2 -18,6 -6,3 -11,8 -16,15 -6,6 -10,13 -15,21 -4,8 -8,18 -12,30 -5,12 -8,23 -9,32 -2,9 -3,17 -3,25zm273 -129c-10,6 -18,14 -26,24 -8,9 -14,22 -20,38 -5,15 -9,29 -11,40 -3,12 -4,22 -4,31 0,3 0,6 1,9 0,2 1,5 3,7 2,2 5,4 8,6 3,1 8,2 13,2 2,0 5,-1 8,-2 2,-2 5,-4 7,-6 3,-2 5,-5 7,-8 2,-3 4,-6 6,-9 4,-8 8,-16 12,-25 -1,-3 -1,-7 -1,-12 -1,-6 -1,-15 -1,-26 0,-11 0,-21 -1,-28 0,-8 0,-14 0,-20 0,-6 0,-11 0,-15 0,-4 -1,-6 -1,-6zm155 161c-10,11 -21,20 -31,29 -4,3 -9,6 -14,10 -4,3 -9,6 -14,9 -4,2 -9,5 -13,6 -5,2 -9,3 -12,3 -2,0 -6,-1 -10,-2 -4,-1 -9,-4 -13,-7 -5,-4 -10,-9 -15,-16 -5,-7 -10,-15 -13,-27 -6,7 -12,14 -18,20 -6,6 -13,12 -19,16 -7,5 -14,9 -21,11 -6,3 -13,5 -20,5 -10,0 -18,-3 -25,-8 -8,-5 -13,-11 -18,-19 -5,-8 -8,-18 -11,-28 -2,-10 -3,-21 -3,-32 0,-12 1,-24 4,-36 2,-12 6,-23 10,-35 5,-11 10,-23 16,-35 6,-13 13,-24 23,-34 10,-10 19,-18 29,-23 10,-5 21,-9 32,-10 1,-24 3,-44 7,-62 3,-18 7,-38 11,-58 5,-21 10,-40 17,-57 6,-18 14,-33 22,-45 8,-13 16,-23 25,-30 9,-7 18,-11 28,-11 7,0 13,2 18,7 5,4 9,10 12,17 3,8 5,16 6,26 2,10 2,20 2,30 0,7 0,13 0,20 0,26 -3,50 -9,73 -7,22 -13,44 -19,66 -6,22 -13,44 -22,65 -13,33 -21,56 -25,68 0,2 -1,5 -2,9 -1,4 -2,8 -2,12 -1,4 -2,9 -2,13 -1,5 -1,9 -1,13 0,6 0,11 1,15 1,5 1,10 3,13 1,4 2,7 4,9 2,2 5,4 7,4 3,0 6,-1 10,-2 3,-2 7,-4 10,-6 4,-2 8,-5 12,-8 4,-3 7,-6 11,-9 8,-8 17,-16 26,-25l6 56zm-49 -347c1,-12 1,-22 1,-30 0,-10 -1,-16 -2,-20 -1,-4 -4,-6 -6,-6 -5,0 -9,4 -13,11 -4,7 -7,17 -10,28 -2,12 -5,25 -8,38 -2,14 -4,27 -6,40 -1,13 -2,25 -3,36 -1,10 -1,18 -2,22 0,9 -1,18 -1,26 -1,9 -1,16 -1,23 0,7 0,13 0,18 0,6 0,9 0,12l0 3c8,-24 16,-48 23,-73 3,-10 5,-21 8,-32 3,-11 6,-22 9,-33 3,-11 5,-21 7,-32 2,-11 3,-21 4,-31zm159 356c0,1 0,3 0,5 0,3 -1,6 -2,9 -1,4 -2,7 -4,11 -1,4 -4,8 -7,11 -3,4 -7,6 -12,8 -5,2 -10,4 -17,4 -6,0 -11,-1 -15,-3 -5,-1 -9,-4 -12,-7 -3,-3 -6,-7 -7,-12 -2,-5 -3,-11 -3,-19 0,-5 1,-11 2,-17 2,-6 4,-11 8,-15 3,-5 7,-8 12,-11 6,-3 12,-4 19,-4 12,0 22,3 28,10 7,7 10,17 10,30zm141 48c-14,0 -26,-3 -37,-10 -10,-6 -19,-14 -26,-25 -7,-10 -12,-22 -16,-35 -3,-14 -5,-28 -5,-43 0,-11 1,-23 4,-38 3,-15 6,-27 10,-39 3,-11 8,-21 13,-31 5,-10 11,-19 18,-26 7,-8 14,-14 23,-18 8,-5 17,-7 27,-7 9,0 18,2 25,5 8,3 15,7 20,13 6,6 10,12 13,20 3,8 5,16 5,25 0,6 -1,12 -2,18 -2,6 -5,13 -9,21 -4,9 -8,14 -12,17 -4,3 -9,4 -14,4 -7,0 -12,-2 -14,-7 -4,-7 -5,-13 -4,-18 1,-3 2,-10 4,-20 1,-2 1,-5 1,-10 0,-5 -1,-8 -1,-11 -1,-3 -3,-5 -5,-5 -6,0 -12,2 -16,6 -4,3 -8,8 -11,14 -3,5 -6,13 -9,24 -3,10 -5,19 -6,26 -1,7 -2,14 -2,21 -1,6 -1,11 -1,16 0,6 1,13 2,20 0,7 2,14 5,20 3,5 7,10 11,14 5,4 11,6 18,6 7,0 15,-3 24,-8 9,-5 17,-12 26,-20 9,-8 17,-17 25,-27 8,-10 15,-19 21,-28l15 32c-11,19 -23,36 -36,52 -6,6 -12,13 -18,19 -7,6 -14,12 -21,16 -7,5 -14,9 -22,12 -8,3 -15,5 -23,5zm237 -210c4,10 8,21 10,33 2,12 3,25 3,40 0,10 -1,21 -3,32 -2,11 -5,21 -8,32 -4,10 -8,19 -14,28 -5,9 -11,17 -18,23 -7,7 -14,12 -22,16 -9,4 -17,6 -26,6 -13,0 -25,-4 -34,-11 -9,-7 -17,-16 -23,-27 -6,-12 -10,-24 -13,-38 -3,-15 -4,-29 -4,-44 0,-24 2,-44 7,-62 5,-17 12,-32 21,-45 10,-13 21,-23 34,-30 13,-7 28,-11 45,-11 14,0 28,3 40,8 12,5 24,12 35,21 11,9 21,21 30,34 10,14 18,27 26,39l-4 39c-4,-7 -9,-14 -16,-21 -7,-8 -14,-16 -22,-26 -8,-9 -15,-17 -23,-23 -7,-7 -14,-12 -19,-17l-2 4zm-70 157c6,0 11,-3 15,-9 5,-6 9,-14 13,-24 4,-9 6,-21 9,-34 2,-14 3,-26 3,-37 0,-8 -1,-16 -2,-23 -1,-7 -2,-13 -4,-18 -3,-6 -5,-10 -9,-13 -3,-3 -7,-5 -11,-5 -7,0 -12,4 -18,10 -6,6 -10,14 -15,24 -4,10 -7,21 -10,33 -2,12 -3,26 -3,41 0,7 0,14 2,21 1,7 3,13 5,18 3,5 6,9 10,12 5,3 10,4 15,4zm219 3c0,-2 0,-5 0,-10 0,-4 1,-9 1,-15 1,-6 2,-12 2,-18 1,-6 2,-12 3,-19 1,-14 3,-30 6,-47l-4 0c-1,3 -3,7 -6,13 -2,5 -5,13 -9,24 -5,10 -10,24 -17,41 -6,17 -14,38 -25,62 -3,7 -6,12 -10,15 -4,2 -9,4 -13,4 -6,0 -11,-2 -15,-5 -4,-3 -7,-7 -9,-12 -2,-6 -3,-11 -4,-18 0,-7 -1,-13 -1,-21 0,-7 1,-16 1,-26 1,-10 2,-21 3,-33 1,-11 3,-24 5,-38 3,-15 5,-28 7,-38 1,-11 3,-21 5,-30 2,-9 3,-17 5,-22 1,-6 3,-11 4,-14 1,-4 3,-7 5,-8 1,-2 3,-4 6,-4 2,-1 5,-1 9,-1 6,0 10,0 13,0 4,1 6,2 7,4 2,1 3,4 3,7 1,4 1,8 1,14 0,3 0,6 -1,10 0,5 0,9 -1,13 0,5 0,10 -1,15 -1,9 -2,13 -2,14 -2,12 -4,26 -6,42l2 3c1,-1 2,-5 6,-15 4,-9 8,-18 12,-27 4,-9 9,-18 14,-28 5,-10 9,-19 14,-26 4,-8 9,-14 14,-19 5,-5 10,-7 17,-7 6,0 12,2 16,6 5,5 7,11 7,20 0,7 0,14 -1,20 -1,8 -2,14 -3,19 -1,4 -2,10 -3,17 -1,6 -3,15 -6,27 0,1 -1,4 -1,8 0,1 -1,1 -1,2l3 3c0,-1 2,-5 6,-14 4,-10 8,-19 13,-28 4,-9 9,-18 14,-28 6,-10 10,-19 15,-26 4,-7 9,-14 13,-19 4,-5 9,-7 16,-7 7,0 13,2 18,6 4,5 7,11 7,20 0,12 -1,24 -2,36 -1,11 -2,24 -4,37 -3,14 -4,27 -5,38 -1,11 -2,23 -2,36 0,10 1,18 3,24 2,6 5,10 8,10 3,0 6,-1 10,-3 3,-2 7,-4 10,-6 4,-3 8,-6 11,-9 3,-4 7,-7 10,-11 7,-8 14,-18 22,-28l3 64c-6,6 -13,13 -19,19 -7,7 -14,13 -21,18 -7,6 -15,10 -24,13 -8,4 -18,6 -29,6 -5,0 -10,-2 -14,-7 -3,-4 -6,-10 -8,-17 -3,-8 -4,-16 -5,-26 -1,-11 -2,-22 -2,-33 0,-12 1,-24 1,-37 1,-13 2,-26 3,-40l-3 0 -46 140c-4,8 -8,13 -13,16 -5,2 -10,4 -16,4 -5,0 -9,-2 -12,-5 -3,-3 -5,-7 -6,-12 -2,-5 -3,-10 -4,-16 0,-6 0,-11 0,-17z"/>
  </g>
 </g>
</svg>
