<?xml version="1.0" encoding="UTF-8"?>
<!DOCTYPE svg PUBLIC "-//W3C//DTD SVG 1.1//EN" "http://www.w3.org/Graphics/SVG/1.1/DTD/svg11.dtd">
<!-- Creator: CorelDRAW X8 -->
<svg xmlns="http://www.w3.org/2000/svg" xml:space="preserve" width="1733px" height="1891px" version="1.1" style="shape-rendering:geometricPrecision; text-rendering:geometricPrecision; image-rendering:optimizeQuality; fill-rule:evenodd; clip-rule:evenodd"
viewBox="0 0 917 1000"
 xmlns:xlink="http://www.w3.org/1999/xlink">
 <defs>
  <style type="text/css">
   <![CDATA[
    .fil0 {fill:#E6E7E8}
    .fil3 {fill:#00A6F9}
    .fil2 {fill:#2E5F9E}
    .fil1 {fill:white}
   ]]>
  </style>
 </defs>
 <g id="Layer_x0020_1">
  <metadata id="CorelCorpID_0Corel-Layer"/>
  <polygon class="fil0" points="46,173 373,41 739,199 739,731 366,980 103,700 "/>
  <circle class="fil1" cx="687" cy="771" r="162"/>
  <path class="fil2" d="M447 894c-3,-5 -7,-9 -13,-10 -5,-2 -11,-1 -16,2 -11,6 -22,12 -33,18 -7,3 -15,3 -21,-1 -6,-4 -10,-10 -10,-18l0 -343c0,-12 -9,-21 -21,-21l-227 0c-11,0 -20,-9 -21,-20 -1,-32 -2,-66 -2,-105l0 -191c0,-9 6,-17 14,-20l271 -95c6,-3 14,-2 19,2 6,4 9,10 9,17l0 349c0,12 9,21 21,21l227 0c5,0 11,2 14,6l3 5c4,7 11,11 19,10 0,0 7,0 7,0 13,0 25,1 38,3 5,1 11,-1 16,-5 4,-4 7,-9 7,-15 1,-27 2,-56 2,-87l0 -250c0,-9 -6,-17 -14,-20l-354 -125c-5,-1 -9,-1 -14,0l-354 125c-8,3 -14,11 -14,20l0 250c0,323 48,442 366,602 3,1 6,2 9,2 3,0 6,-1 9,-2 28,-14 52,-27 76,-41 5,-3 9,-8 10,-13 1,-6 0,-12 -3,-17 -7,-10 -14,-21 -20,-33z"/>
  <path class="fil3" d="M687 542c-126,0 -229,102 -229,229 0,126 103,229 229,229 127,0 230,-103 230,-229 0,-127 -103,-229 -230,-229zm119 181l-145 146c-5,4 -10,6 -15,6 -6,0 -11,-2 -15,-6l-62 -63c-9,-8 -9,-21 0,-29 8,-8 21,-8 29,0l48 48 131 -131c8,-9 21,-9 29,0 8,8 8,21 0,29z"/>
 </g>
</svg>
